<svg xmlns="http://www.w3.org/2000/svg" width="1438" height="1202" viewBox="0 0 1438 1202" fill="none"><g clip-path="url(#clip0_1626_3042)"><g opacity="0.44" clip-path="url(#clip1_1626_3042)"><path opacity="0.2" d="M2085.87 689.515C2050.87 683.827 1426.66 673.73 1409.88 655.719C1396.25 641.109 1390.48 494.99 1368.3 494.99C1346.12 494.99 1340.58 580.907 1329.48 605.839C1318.39 630.787 1280.77 636.098 1271.27 694.525C1263.67 741.275 1268.5 919.008 1249.1 913.456C1229.7 907.919 1232.47 644.645 1229.7 655.719C1226.93 666.809 1218.61 680.667 1201.98 686.204C1185.35 691.741 1173.6 677.251 1143.77 666.809C1123.25 659.632 1121.73 669.728 1096.8 683.586C1071.84 697.444 1052.29 694.525 1032.89 697.294C1013.49 700.062 1013.49 472.811 1013.49 472.811C1013.49 472.811 1001.54 688.251 980.233 691.741C966.552 693.983 954.031 664.025 940.169 664.025C930.598 664.025 913.079 674.603 903.176 681.149C898.18 684.444 892.325 686.189 886.335 686.189H553.367C553.367 686.189 492.174 679.042 472.985 705.584C454.473 731.194 448.032 858.009 434.171 880.172C420.309 902.336 398.141 813.666 392.587 780.412C387.049 747.159 370.704 731.721 362.397 715.094C354.074 698.467 353.788 655.704 345.465 630.757C337.143 605.809 348.716 194.746 323.297 209.522C306.019 219.558 298.344 594.735 295.574 622.451C292.805 650.167 269.177 675.972 237.361 670.977C209.142 666.553 200.157 628.199 186.296 625.415C176.333 623.429 156.948 647.835 146.834 661.708C142.605 667.501 135.893 670.962 128.714 670.962H90.4417C84.226 670.962 79.094 666.102 78.7478 659.902L68.2729 472.78C68.2729 472.78 46.1042 661.227 35.0123 669.547C23.9204 677.868 -1.0176 647.383 -12.1095 636.294C-19.3335 629.072 -30.0944 640.673 -36.7164 649.641C-40.8251 655.208 -47.3418 658.473 -54.2799 658.473H-1142.05" stroke="url(#paint0_linear_1626_3042)" stroke-width="1.50379" stroke-miterlimit="10"></path><path opacity="0.23" d="M2083.11 693.948C2046.47 688.426 1420.7 678.419 1403.36 659.837C1389.72 645.226 1383.96 499.107 1361.78 499.107C1339.59 499.107 1334.05 585.024 1322.96 609.956C1311.87 634.904 1274.25 640.216 1264.75 698.642C1257.15 745.393 1261.98 923.125 1242.58 917.573C1223.18 912.036 1225.95 648.762 1223.18 659.837C1220.41 670.926 1212.09 684.784 1195.46 690.321C1178.83 695.859 1167.07 681.369 1137.24 670.926C1116.73 663.749 1115.21 673.845 1090.27 687.703C1065.32 701.561 1045.77 698.642 1026.37 701.411C1006.97 704.18 1006.97 476.928 1006.97 476.928C1006.97 476.928 995.021 692.368 973.71 695.859C960.03 698.101 947.508 668.142 933.647 668.142C924.075 668.142 906.557 678.72 896.654 685.266C891.657 688.561 885.803 690.306 879.813 690.306H546.845C546.845 690.306 485.651 683.159 466.462 709.702C447.951 735.311 441.509 862.126 427.648 884.29C413.787 906.454 391.618 817.783 386.065 784.529C380.526 751.276 364.182 735.838 355.874 719.211C347.551 702.585 347.266 659.822 338.943 634.874C330.62 609.926 342.841 198.863 316.774 213.639C299.421 223.54 291.821 598.852 289.052 626.568C286.283 654.284 262.654 680.09 230.838 675.094C202.619 670.67 193.634 632.316 179.773 629.532C169.81 627.546 150.425 651.952 140.312 665.825C136.083 671.618 129.37 675.079 122.191 675.079H83.9191C77.7034 675.079 72.5713 670.219 72.2252 664.02L61.7504 476.898C61.7504 476.898 39.5815 665.344 28.4896 673.665C17.3977 681.986 -7.54029 651.501 -18.6322 640.411C-25.8562 633.189 -36.617 644.79 -43.2391 653.758C-47.3477 659.325 -53.8645 662.59 -60.8026 662.59H-1148.56" stroke="url(#paint1_linear_1626_3042)" stroke-width="1.85005" stroke-miterlimit="10"></path><path opacity="0.27" d="M2080.35 698.4C2042.06 693.044 1414.73 683.143 1396.85 663.973C1383.22 649.363 1377.45 503.243 1355.27 503.243C1333.08 503.243 1327.55 589.161 1316.45 614.093C1305.36 639.041 1267.74 644.352 1258.24 702.779C1250.64 749.529 1255.47 927.262 1236.07 921.71C1216.67 916.173 1219.44 652.899 1216.67 663.973C1213.9 675.063 1205.58 688.921 1188.95 694.458C1172.32 699.995 1160.56 685.505 1130.74 675.063C1110.22 667.885 1108.7 677.982 1083.76 691.84C1058.81 705.698 1039.26 702.779 1019.86 705.548C1000.46 708.316 1000.46 481.064 1000.46 481.064C1000.46 481.064 988.512 696.504 967.201 699.995C953.521 702.237 940.999 672.279 927.138 672.279C917.566 672.279 900.048 682.857 890.145 689.402C885.148 692.698 879.294 694.443 873.304 694.443H540.336C540.336 694.443 479.142 687.296 459.953 713.838C441.442 739.448 435 866.262 421.139 888.426C407.278 910.59 385.109 821.919 379.556 788.666C374.017 755.413 357.673 739.975 349.365 723.348C341.042 706.721 340.756 663.958 332.434 639.011C324.111 614.063 336.919 202.924 310.265 217.776C292.822 227.481 285.312 602.989 282.543 630.705C279.774 658.421 256.145 684.226 224.329 679.231C196.11 674.807 187.125 636.453 173.264 633.669C163.301 631.683 143.916 656.089 133.803 669.962C129.574 675.755 122.861 679.216 115.683 679.216H77.4102C71.1945 679.216 66.0624 674.356 65.7162 668.156L55.2414 481.034C55.2414 481.034 33.0726 669.48 21.9807 677.801C10.8888 686.122 -14.0492 655.637 -25.1411 644.548C-32.3652 637.325 -43.126 648.926 -49.748 657.894C-53.8567 663.462 -60.3733 666.727 -67.3114 666.727H-1155.1" stroke="url(#paint2_linear_1626_3042)" stroke-width="2.20622" stroke-miterlimit="10"></path><path opacity="0.31" d="M2077.59 702.827C2037.65 697.636 1408.76 687.841 1390.34 668.084C1376.71 653.474 1370.94 507.354 1348.76 507.354C1326.58 507.354 1321.04 593.272 1309.95 618.204C1298.85 643.152 1261.23 648.463 1251.73 706.89C1244.13 753.64 1248.96 931.373 1229.56 925.821C1210.16 920.284 1212.93 657.01 1210.16 668.084C1207.39 679.174 1199.07 693.032 1182.44 698.569C1165.81 704.106 1154.06 689.616 1124.23 679.174C1103.71 671.996 1102.19 682.093 1077.26 695.951C1052.3 709.809 1032.75 706.89 1013.35 709.659C993.954 712.427 993.954 485.175 993.954 485.175C993.954 485.175 982.004 700.615 960.693 704.106C947.013 706.348 934.491 676.39 920.63 676.39C911.058 676.39 893.54 686.968 883.637 693.513C878.64 696.809 872.786 698.554 866.796 698.554H533.828C533.828 698.554 472.634 691.407 453.445 717.949C434.934 743.559 428.492 870.373 414.631 892.537C400.77 914.701 378.601 826.031 373.048 792.777C367.509 759.524 351.165 744.086 342.857 727.459C334.535 710.832 334.249 668.069 325.926 643.122C317.603 618.174 331.028 207.005 303.757 221.886C286.239 231.441 278.804 607.1 276.035 634.816C273.266 662.532 249.637 688.337 217.821 683.342C189.602 678.918 180.617 640.564 166.756 637.78C156.793 635.794 137.409 660.2 127.295 674.073C123.066 679.866 116.354 683.327 109.175 683.327H70.9023C64.6866 683.327 59.5546 678.467 59.2084 672.267L48.7335 485.145C48.7335 485.145 26.5648 673.591 15.4729 681.912C4.38095 690.233 -20.557 659.748 -31.649 648.659C-38.873 641.436 -49.6339 653.037 -56.2559 662.005C-60.3646 667.573 -66.8812 670.838 -73.8193 670.838H-1161.61" stroke="url(#paint3_linear_1626_3042)" stroke-width="2.56238" stroke-miterlimit="10"></path><path opacity="0.35" d="M2074.81 707.269C2033.23 702.243 1402.77 692.553 1383.8 672.21C1370.17 657.6 1364.41 511.48 1342.22 511.48C1320.04 511.48 1314.5 597.397 1303.41 622.33C1292.32 647.277 1254.69 652.589 1245.19 711.016C1237.59 757.766 1242.42 935.499 1223.02 929.947C1203.62 924.409 1206.39 661.136 1203.63 672.21C1200.86 683.299 1192.53 697.158 1175.9 702.695C1159.27 708.232 1147.52 693.742 1117.69 683.299C1097.18 676.122 1095.66 686.219 1070.72 700.077C1045.76 713.935 1026.21 711.016 1006.82 713.784C987.416 716.553 987.416 489.301 987.416 489.301C987.416 489.301 975.466 704.741 954.155 708.232C940.474 710.474 927.953 680.516 914.092 680.516C904.52 680.516 887.001 691.094 877.098 697.639C872.102 700.934 866.247 702.68 860.257 702.68H527.289C527.289 702.68 466.096 695.532 446.907 722.075C427.718 748.618 421.954 874.499 408.093 896.663C394.231 918.827 372.063 830.156 366.509 796.903C360.971 763.649 344.626 748.211 336.319 731.585C327.996 714.958 327.71 672.195 319.387 647.247C311.065 622.3 325.107 211.116 297.219 226.012C279.625 235.401 272.266 611.225 269.496 638.941C266.727 666.658 243.099 692.463 211.283 687.467C183.064 683.044 174.079 644.689 160.218 641.906C150.255 639.92 130.87 664.325 120.756 678.199C116.527 683.992 109.815 687.452 102.636 687.452H64.3638C58.1481 687.452 53.016 682.592 52.6698 676.393L42.1949 489.271C42.1949 489.271 20.0262 677.717 8.93427 686.038C-2.15765 694.359 -27.0956 663.874 -38.1875 652.785C-45.4116 645.562 -56.1724 657.163 -62.7944 666.131C-66.9031 671.698 -73.4198 674.963 -80.3579 674.963H-1168.13" stroke="url(#paint4_linear_1626_3042)" stroke-width="2.90864" stroke-miterlimit="10"></path><path opacity="0.39" d="M2072.05 711.703C2028.82 706.843 1396.79 697.258 1377.29 676.328C1363.65 661.718 1357.89 515.598 1335.71 515.598C1313.52 515.598 1307.98 601.515 1296.89 626.448C1285.8 651.395 1248.17 656.707 1238.68 715.134C1231.08 761.884 1235.91 939.617 1216.51 934.065C1197.11 928.527 1199.88 665.254 1197.11 676.328C1194.34 687.417 1186.02 701.276 1169.39 706.813C1152.76 712.35 1141 697.86 1111.17 687.417C1090.66 680.24 1089.14 690.337 1064.2 704.195C1039.25 718.053 1019.7 715.134 1000.3 717.902C980.9 720.671 980.9 493.419 980.9 493.419C980.9 493.419 968.95 708.859 947.639 712.35C933.959 714.592 921.437 684.634 907.576 684.634C898.004 684.634 880.486 695.212 870.583 701.757C865.586 705.052 859.732 706.798 853.742 706.798H520.774C520.774 706.798 459.58 699.651 440.391 726.193C421.88 751.803 415.438 878.617 401.577 900.781C387.716 922.945 365.547 834.274 359.994 801.021C354.455 767.767 338.111 752.329 329.803 735.703C321.48 719.076 321.194 676.313 312.872 651.365C304.549 626.418 319.223 215.219 290.703 230.13C273.034 239.369 265.75 615.343 262.981 643.06C260.212 670.776 236.583 696.581 204.767 691.585C176.548 687.162 167.563 648.807 153.702 646.024C143.739 644.038 124.354 668.443 114.241 682.317C110.012 688.11 103.299 691.57 96.1205 691.57H57.8481C51.6324 691.57 46.5003 686.71 46.1542 680.511L35.6794 493.389C35.6794 493.389 13.5106 681.835 2.41864 690.156C-8.67327 698.477 -33.6113 667.992 -44.7032 656.903C-51.9272 649.68 -62.688 661.281 -69.31 670.249C-73.4187 675.816 -79.9354 679.082 -86.8734 679.082H-1174.65" stroke="url(#paint5_linear_1626_3042)" stroke-width="3.2648" stroke-miterlimit="10"></path><path opacity="0.43" d="M2069.27 716.16C2024.41 711.466 1390.81 701.986 1370.77 680.469C1357.13 665.859 1351.37 519.739 1329.18 519.739C1307 519.739 1301.46 605.657 1290.37 630.589C1279.28 655.537 1241.65 660.848 1232.15 719.275C1224.55 766.025 1229.38 943.758 1209.99 938.206C1190.59 932.669 1193.35 669.395 1190.59 680.469C1187.82 691.559 1179.49 705.417 1162.86 710.954C1146.23 716.491 1134.48 702.001 1104.65 691.559C1084.14 684.381 1082.62 694.478 1057.68 708.336C1032.73 722.194 1013.18 719.275 993.776 722.044C974.376 724.812 974.376 497.56 974.376 497.56C974.376 497.56 962.426 713.001 941.115 716.491C927.435 718.733 914.913 688.775 901.052 688.775C891.48 688.775 873.962 699.353 864.059 705.898C859.062 709.194 853.208 710.939 847.218 710.939H514.25C514.25 710.939 453.056 703.792 433.867 730.334C415.356 755.944 408.914 882.758 395.053 904.922C381.192 927.086 359.023 838.416 353.47 805.162C347.931 771.909 331.587 756.471 323.279 739.844C314.956 723.217 314.671 680.454 306.348 655.507C298.025 630.559 313.331 219.345 284.179 234.272C266.435 243.36 259.226 619.485 256.457 647.201C253.688 674.917 230.059 700.722 198.243 695.727C170.024 691.303 161.039 652.949 147.178 650.165C137.215 648.179 117.831 672.585 107.717 686.458C103.488 692.251 96.7754 695.712 89.5965 695.712H51.3241C45.1084 695.712 39.9764 690.852 39.6303 684.652L29.1554 497.53C29.1554 497.53 6.98665 685.976 -4.10526 694.297C-15.1972 702.618 -40.1352 672.133 -51.2271 661.044C-58.4511 653.821 -69.212 665.423 -75.834 674.39C-79.9427 679.958 -86.4594 683.223 -93.3974 683.223H-1181.19" stroke="url(#paint6_linear_1626_3042)" stroke-width="3.61107" stroke-miterlimit="10"></path><path opacity="0.46" d="M2066.51 720.595C2019.99 716.051 1384.85 706.677 1364.24 684.603C1350.61 669.993 1344.84 523.873 1322.66 523.873C1300.47 523.873 1294.94 609.79 1283.84 634.723C1272.75 659.67 1235.13 664.982 1225.63 723.409C1218.03 770.159 1222.86 947.892 1203.46 942.34C1184.06 936.802 1186.83 673.529 1184.06 684.603C1181.29 695.692 1172.97 709.551 1156.34 715.088C1139.71 720.625 1127.96 706.135 1098.13 695.692C1077.61 688.515 1076.09 698.612 1051.16 712.47C1026.2 726.328 1006.65 723.409 987.252 726.177C967.853 728.946 967.853 501.694 967.853 501.694C967.853 501.694 955.903 717.134 934.592 720.625C920.912 722.867 908.39 692.909 894.529 692.909C884.957 692.909 867.439 703.487 857.536 710.032C852.539 713.327 846.685 715.073 840.695 715.073H507.727C507.727 715.073 446.533 707.926 427.344 734.468C408.155 761.011 402.391 886.892 388.53 909.056C374.669 931.22 352.5 842.549 346.947 809.296C341.408 776.042 325.064 760.604 316.756 743.978C308.433 727.351 308.148 684.588 299.825 659.64C291.502 634.693 307.425 223.464 277.656 238.405C259.852 247.343 252.703 623.618 249.934 651.335C247.165 679.051 223.536 704.856 191.72 699.86C163.501 695.437 154.516 657.082 140.655 654.299C130.692 652.313 111.307 676.718 101.194 690.592C96.9647 696.385 90.2524 699.845 83.0735 699.845H44.8012C38.5855 699.845 33.4534 694.985 33.1072 688.786L22.6323 501.664C22.6323 501.664 0.463585 690.11 -10.6283 698.431C-21.7202 706.752 -46.6582 676.267 -57.7501 665.178C-64.9742 657.955 -75.7349 669.556 -82.357 678.524C-86.4657 684.091 -92.9824 687.357 -99.9205 687.357H-1187.7" stroke="url(#paint7_linear_1626_3042)" stroke-width="3.96723" stroke-miterlimit="10"></path><path opacity="0.5" d="M2063.73 725.021C2015.57 720.642 1378.86 711.374 1357.72 688.713C1344.08 674.103 1338.32 527.983 1316.14 527.983C1293.95 527.983 1288.41 613.9 1277.32 638.833C1266.23 663.781 1228.6 669.092 1219.11 727.519C1211.51 774.269 1216.34 952.002 1196.94 946.45C1177.54 940.912 1180.31 677.639 1177.54 688.713C1174.77 699.803 1166.45 713.661 1149.82 719.198C1133.19 724.735 1121.43 710.245 1091.6 699.803C1071.09 692.625 1069.57 702.722 1044.63 716.58C1019.68 730.438 1000.13 727.519 980.729 730.287C961.33 733.056 961.33 505.804 961.33 505.804C961.33 505.804 949.38 721.244 928.069 724.735C914.389 726.977 901.867 697.019 888.006 697.019C878.434 697.019 860.916 707.597 851.013 714.142C846.016 717.437 840.162 719.183 834.172 719.183H501.204C501.204 719.183 440.01 712.036 420.821 738.578C402.31 764.188 395.868 891.002 382.007 913.166C368.146 935.33 345.977 846.659 340.423 813.406C334.885 780.152 318.541 764.714 310.233 748.088C301.91 731.461 301.624 688.698 293.302 663.75C284.979 638.803 301.534 227.559 271.133 242.515C253.253 251.303 246.18 627.728 243.411 655.445C240.641 683.161 217.013 708.966 185.197 703.971C156.978 699.547 147.993 661.192 134.132 658.409C124.169 656.423 104.784 680.829 94.6705 694.702C90.4415 700.495 83.7292 703.955 76.5503 703.955H38.2779C32.0622 703.955 26.9301 699.095 26.584 692.896L16.1092 505.774C16.1092 505.774 -6.05966 694.22 -17.1516 702.541C-28.2435 710.862 -53.1815 680.377 -64.2734 669.288C-71.4974 662.065 -82.2582 673.666 -88.8802 682.634C-92.9889 688.202 -99.5056 691.467 -106.444 691.467H-1194.22" stroke="url(#paint8_linear_1626_3042)" stroke-width="4.32339" stroke-miterlimit="10"></path><path opacity="0.54" d="M2060.96 729.478C2011.16 725.265 1372.89 716.101 1351.2 692.854C1337.57 678.243 1331.8 532.124 1309.62 532.124C1287.44 532.124 1281.9 618.041 1270.81 642.974C1259.71 667.921 1222.09 673.233 1212.59 731.659C1204.99 778.41 1209.82 956.143 1190.42 950.59C1171.02 945.053 1173.79 681.779 1171.02 692.854C1168.25 703.943 1159.93 717.801 1143.3 723.339C1126.67 728.876 1114.92 714.386 1085.09 703.943C1064.57 696.766 1063.05 706.862 1038.12 720.72C1013.16 734.578 993.613 731.659 974.213 734.428C954.814 737.197 954.814 509.945 954.814 509.945C954.814 509.945 942.864 725.385 921.553 728.876C907.873 731.118 895.351 701.16 881.49 701.16C871.918 701.16 854.4 711.737 844.497 718.283C839.5 721.578 833.646 723.324 827.656 723.324H494.688C494.688 723.324 433.494 716.176 414.305 742.719C395.793 768.328 389.352 895.143 375.491 917.307C361.63 939.471 339.461 850.8 333.908 817.547C328.369 784.293 312.025 768.855 303.717 752.228C295.394 735.602 295.108 692.839 286.786 667.891C278.463 642.944 295.65 231.699 264.617 246.656C246.662 255.308 239.664 631.869 236.895 659.585C234.125 687.301 210.497 713.107 178.681 708.111C150.462 703.687 141.477 665.333 127.616 662.549C117.653 660.563 98.2685 684.969 88.1548 698.842C83.9257 704.635 77.2133 708.096 70.0344 708.096H31.7621C25.5464 708.096 20.4144 703.236 20.0682 697.037L9.59335 509.915C9.59335 509.915 -12.5754 698.361 -23.6673 706.682C-34.7592 715.003 -59.6972 684.518 -70.7891 673.428C-78.0131 666.206 -88.774 677.807 -95.396 686.775C-99.5047 692.342 -106.021 695.607 -112.959 695.607H-1200.73" stroke="url(#paint9_linear_1626_3042)" stroke-width="4.66966" stroke-miterlimit="10"></path><path opacity="0.58" d="M2058.19 733.911C2006.75 729.863 1366.89 720.805 1344.66 696.971C1331.03 682.36 1325.27 536.241 1303.08 536.241C1280.9 536.241 1275.36 622.158 1264.27 647.091C1253.18 672.038 1215.55 677.35 1206.05 735.777C1198.45 782.527 1203.28 960.26 1183.88 954.707C1164.48 949.17 1167.25 685.896 1164.49 696.971C1161.72 708.06 1153.39 721.918 1136.76 727.456C1120.13 732.993 1108.38 718.503 1078.55 708.06C1058.04 700.883 1056.52 710.979 1031.58 724.837C1006.62 738.696 987.075 735.777 967.675 738.545C948.276 741.314 948.275 514.062 948.275 514.062C948.275 514.062 936.326 729.502 915.015 732.993C901.334 735.235 888.813 705.277 874.952 705.277C865.38 705.277 847.861 715.855 837.958 722.4C832.962 725.695 827.107 727.441 821.117 727.441H488.149C488.149 727.441 426.956 720.293 407.767 746.836C389.255 772.446 382.814 899.26 368.953 921.424C355.091 943.588 332.923 854.917 327.369 821.664C321.831 788.41 305.486 772.972 297.179 756.345C288.856 739.719 288.57 696.956 280.247 672.008C271.925 647.061 289.744 235.817 258.079 250.773C240.064 259.275 233.126 635.986 230.356 663.702C227.587 691.419 203.959 717.224 172.143 712.228C143.924 707.805 134.939 669.45 121.078 666.667C111.115 664.68 91.7301 689.086 81.6164 702.959C77.3873 708.753 70.675 712.213 63.4961 712.213H25.2238C19.0081 712.213 13.876 707.353 13.5298 701.154L3.05494 514.032C3.05494 514.032 -19.1138 702.478 -30.2057 710.799C-41.2976 719.12 -66.2356 688.635 -77.3275 677.545C-84.5516 670.323 -95.3123 681.924 -101.934 690.892C-106.043 696.459 -112.56 699.724 -119.498 699.724H-1207.26" stroke="url(#paint10_linear_1626_3042)" stroke-width="5.02582" stroke-miterlimit="10"></path><path opacity="0.62" d="M2055.44 738.344C2002.34 734.462 1360.93 725.509 1338.16 701.088C1324.53 686.478 1318.76 540.358 1296.58 540.358C1274.4 540.358 1268.86 626.275 1257.77 651.208C1246.67 676.155 1209.05 681.467 1199.55 739.894C1191.95 786.644 1196.78 964.377 1177.38 958.825C1157.98 953.287 1160.75 690.014 1157.98 701.088C1155.22 712.178 1146.89 726.036 1130.26 731.573C1113.63 737.11 1101.88 722.62 1072.05 712.178C1051.54 705 1050.02 715.097 1025.08 728.955C1000.12 742.813 980.574 739.894 961.175 742.662C941.775 745.431 941.775 518.179 941.775 518.179C941.775 518.179 929.825 733.619 908.514 737.11C894.834 739.352 882.312 709.394 868.451 709.394C858.879 709.394 841.361 719.972 831.458 726.517C826.461 729.812 820.607 731.558 814.617 731.558H481.649C481.649 731.558 420.455 724.411 401.266 750.953C382.755 776.563 376.313 903.377 362.452 925.541C348.591 947.705 326.422 859.034 320.869 825.781C315.33 792.527 298.986 777.089 290.678 760.463C282.355 743.836 282.069 701.073 273.747 676.125C265.424 651.178 283.891 239.934 251.578 254.89C233.503 263.256 226.625 640.103 223.856 667.82C221.087 695.536 197.458 721.341 165.642 716.346C137.423 711.922 128.438 673.567 114.577 670.784C104.614 668.798 85.2294 693.204 75.1158 707.077C70.8867 712.87 64.1744 716.33 56.9955 716.33H18.7231C12.5074 716.33 7.37534 711.47 7.02918 705.271L-3.44562 518.149C-3.44562 518.149 -25.6144 706.595 -36.7064 714.916C-47.7983 723.237 -72.7363 692.752 -83.8282 681.663C-91.0522 674.44 -101.813 686.041 -108.435 695.009C-112.544 700.576 -119.06 703.842 -125.998 703.842H-1213.77" stroke="url(#paint11_linear_1626_3042)" stroke-width="5.38198" stroke-miterlimit="10"></path><path opacity="0.66" d="M2052.65 742.815C1997.92 739.099 1354.95 730.251 1331.63 705.244C1318 690.633 1312.23 544.514 1290.05 544.514C1267.87 544.514 1262.33 630.431 1251.24 655.363C1240.14 680.311 1202.52 685.623 1193.02 744.049C1185.42 790.8 1190.25 968.532 1170.85 962.98C1151.45 957.443 1154.22 694.169 1151.45 705.244C1148.68 716.333 1140.36 730.191 1123.73 735.728C1107.1 741.266 1095.35 726.775 1065.52 716.333C1045 709.156 1043.48 719.252 1018.55 733.11C993.593 746.968 974.043 744.049 954.643 746.818C935.244 749.586 935.244 522.335 935.244 522.335C935.244 522.335 923.294 737.775 901.983 741.266C888.303 743.508 875.781 713.549 861.92 713.549C852.348 713.549 834.829 724.127 824.926 730.673C819.93 733.968 814.075 735.713 808.086 735.713H475.117C475.117 735.713 413.924 728.566 394.735 755.109C376.223 780.718 369.782 907.533 355.921 929.697C342.06 951.861 319.891 863.19 314.337 829.936C308.799 796.683 292.455 781.245 284.147 764.618C275.824 747.992 275.538 705.228 267.216 680.281C258.893 655.333 277.991 244.104 245.047 259.046C226.896 267.276 220.094 644.259 217.325 671.975C214.555 699.691 190.927 725.497 159.111 720.501C130.892 716.077 121.907 677.723 108.046 674.939C98.0827 672.953 78.6983 697.359 68.5846 711.232C64.3555 717.025 57.6431 720.486 50.4642 720.486H12.1919C5.97619 720.486 0.844178 715.626 0.498026 709.427L-9.97687 522.305C-9.97687 522.305 -32.1456 710.751 -43.2375 719.072C-54.3294 727.392 -79.2674 696.908 -90.3593 685.818C-97.5834 678.596 -108.344 690.197 -114.966 699.165C-119.075 704.732 -125.592 707.997 -132.53 707.997H-1220.3" stroke="url(#paint12_linear_1626_3042)" stroke-width="5.72824" stroke-miterlimit="10"></path><path opacity="0.69" d="M2049.9 747.249C1993.52 743.698 1348.99 734.955 1325.13 709.361C1311.5 694.75 1305.73 548.631 1283.55 548.631C1261.37 548.631 1255.83 634.548 1244.74 659.481C1233.64 684.428 1196.02 689.74 1186.52 748.166C1178.92 794.917 1183.75 972.65 1164.35 967.097C1144.95 961.56 1147.72 698.286 1144.95 709.361C1142.18 720.45 1133.86 734.308 1117.23 739.846C1100.6 745.383 1088.85 730.893 1059.02 720.45C1038.5 713.273 1036.98 723.369 1012.05 737.227C987.093 751.086 967.543 748.166 948.143 750.935C928.744 753.704 928.744 526.452 928.744 526.452C928.744 526.452 916.794 741.892 895.483 745.383C881.803 747.625 869.281 717.667 855.42 717.667C845.848 717.667 828.329 728.244 818.426 734.79C813.43 738.085 807.575 739.831 801.586 739.831H468.617C468.617 739.831 407.424 732.683 388.235 759.226C369.723 784.835 363.282 911.65 349.421 933.814C335.56 955.978 313.391 867.307 307.837 834.054C302.299 800.8 285.955 785.362 277.647 768.735C269.324 752.109 269.038 709.346 260.716 684.398C252.393 659.451 272.139 248.222 238.547 263.163C220.336 271.258 213.594 648.376 210.825 676.092C208.055 703.808 184.427 729.614 152.611 724.618C124.392 720.194 115.407 681.84 101.546 679.056C91.5828 677.07 72.1983 701.476 62.0846 715.349C57.8555 721.142 51.1432 724.603 43.9643 724.603H5.69197C-0.523714 724.603 -5.65582 719.743 -6.00197 713.544L-16.4769 526.422C-16.4769 526.422 -38.6456 714.868 -49.7375 723.189C-60.8294 731.51 -85.7674 701.025 -96.8593 689.935C-104.083 682.713 -114.844 694.314 -121.466 703.282C-125.575 708.849 -132.092 712.114 -139.03 712.114H-1226.8" stroke="url(#paint13_linear_1626_3042)" stroke-width="6.08441" stroke-miterlimit="10"></path><path opacity="0.73" d="M2047.12 751.68C1989.11 748.295 1343.01 739.643 1318.59 713.476C1304.96 698.866 1299.19 552.746 1277.01 552.746C1254.83 552.746 1249.29 638.664 1238.2 663.596C1227.1 688.544 1189.48 693.855 1179.98 752.282C1172.38 799.033 1177.21 976.765 1157.81 971.213C1138.41 965.676 1141.18 702.402 1138.41 713.476C1135.65 724.566 1127.32 738.424 1110.69 743.961C1094.06 749.498 1082.31 735.008 1052.48 724.566C1031.97 717.389 1030.45 727.485 1005.51 741.343C980.555 755.201 961.004 752.282 941.605 755.051C922.205 757.819 922.205 530.568 922.205 530.568C922.205 530.568 910.255 746.008 888.945 749.498C875.264 751.74 862.742 721.782 848.881 721.782C839.309 721.782 821.791 732.36 811.888 738.905C806.892 742.201 801.037 743.946 795.047 743.946H462.079C462.079 743.946 400.885 736.799 381.697 763.341C363.185 788.951 356.744 915.766 342.882 937.929C329.021 960.093 306.852 871.423 301.299 838.169C295.76 804.916 279.416 789.478 271.108 772.851C262.786 756.224 262.5 713.461 254.177 688.514C245.854 663.566 266.232 252.367 232.008 267.279C213.737 275.238 207.055 652.492 204.286 680.208C201.517 707.924 177.888 733.729 146.072 728.734C117.853 724.31 108.868 685.956 95.0074 683.172C85.0442 681.186 65.6597 705.592 55.546 719.465C51.3169 725.258 44.6046 728.719 37.4257 728.719H-0.846623C-7.06231 728.719 -12.1944 723.859 -12.5406 717.659L-23.0154 530.537C-23.0154 530.537 -45.1842 718.984 -56.2761 727.304C-67.368 735.625 -92.306 705.14 -103.398 694.051C-110.622 686.829 -121.383 698.43 -128.005 707.397C-132.113 712.965 -138.63 716.23 -145.568 716.23H-1233.33" stroke="url(#paint14_linear_1626_3042)" stroke-width="6.44057" stroke-miterlimit="10"></path><path opacity="0.77" d="M2044.37 756.128C1984.7 752.908 1337.05 744.362 1312.09 717.608C1298.46 702.998 1292.69 556.878 1270.51 556.878C1248.33 556.878 1242.79 642.796 1231.7 667.728C1220.6 692.676 1182.98 697.987 1173.48 756.414C1165.88 803.164 1170.71 980.897 1151.31 975.345C1131.91 969.808 1134.68 706.534 1131.91 717.608C1129.14 728.698 1120.82 742.556 1104.19 748.093C1087.56 753.63 1075.81 739.14 1045.98 728.698C1025.46 721.521 1023.94 731.617 999.006 745.475C974.053 759.333 954.503 756.414 935.104 759.183C915.704 761.951 915.704 534.7 915.704 534.7C915.704 534.7 903.754 750.14 882.443 753.63C868.763 755.872 856.241 725.914 842.38 725.914C832.808 725.914 815.29 736.492 805.387 743.037C800.39 746.333 794.536 748.078 788.546 748.078H455.578C455.578 748.078 394.384 740.931 375.195 767.473C356.684 793.083 350.242 919.898 336.381 942.061C322.52 964.225 300.351 875.555 294.798 842.301C289.259 809.048 272.915 793.61 264.607 776.983C256.285 760.356 255.999 717.593 247.676 692.646C239.353 667.698 260.378 256.514 225.507 271.411C207.176 279.235 200.554 656.624 197.785 684.34C195.016 712.056 171.387 737.861 139.571 732.866C111.352 728.442 102.367 690.088 88.5062 687.304C78.5431 685.318 59.1586 709.724 49.045 723.597C44.8159 729.39 38.1035 732.851 30.9246 732.851H-7.34774C-13.5634 732.851 -18.6955 727.991 -19.0417 721.791L-29.5165 534.669C-29.5165 534.669 -51.6853 723.116 -62.7772 731.436C-73.8691 739.757 -98.8071 709.272 -109.899 698.183C-117.123 690.961 -127.884 702.562 -134.506 711.53C-138.615 717.097 -145.131 720.362 -152.069 720.362H-1239.86" stroke="url(#paint15_linear_1626_3042)" stroke-width="6.78683" stroke-miterlimit="10"></path><path opacity="0.81" d="M2041.6 760.56C1980.29 757.505 1331.06 749.064 1305.58 721.724C1291.94 707.114 1286.18 560.994 1263.99 560.994C1241.81 560.994 1236.27 646.911 1225.18 671.844C1214.09 696.792 1176.46 702.103 1166.97 760.53C1159.37 807.28 1164.2 985.013 1144.8 979.461C1125.4 973.923 1128.17 710.65 1125.4 721.724C1122.63 732.814 1114.31 746.672 1097.68 752.209C1081.05 757.746 1069.29 743.256 1039.46 732.814C1018.95 725.636 1017.43 735.733 992.49 749.591C967.537 763.449 947.987 760.53 928.588 763.298C909.188 766.067 909.188 538.815 909.188 538.815C909.188 538.815 897.238 754.255 875.927 757.746C862.247 759.988 849.725 730.03 835.864 730.03C826.292 730.03 808.774 740.608 798.871 747.153C793.874 750.448 788.02 752.194 782.03 752.194H449.062C449.062 752.194 387.868 745.047 368.68 771.589C350.168 797.199 343.726 924.013 329.865 946.177C316.004 968.341 293.836 879.67 288.282 846.417C282.744 813.163 266.399 797.725 258.092 781.099C249.769 764.472 249.483 721.709 241.16 696.761C232.838 671.814 254.51 260.66 218.991 275.526C200.6 283.23 194.038 660.739 191.269 688.456C188.5 716.172 164.871 741.977 133.055 736.982C104.837 732.558 95.8516 694.203 81.9905 691.42C72.0274 689.434 52.6429 713.84 42.5292 727.713C38.3002 733.506 31.5879 736.966 24.409 736.966H-13.8635C-20.0792 736.966 -25.2112 732.106 -25.5573 725.907L-36.0322 538.785C-36.0322 538.785 -58.2009 727.231 -69.2929 735.552C-80.3848 743.873 -105.323 713.388 -116.415 702.299C-123.639 695.076 -134.4 706.677 -141.022 715.645C-145.13 721.212 -151.647 724.478 -158.585 724.478H-1246.38" stroke="url(#paint16_linear_1626_3042)" stroke-width="7.14299" stroke-miterlimit="10"></path><path opacity="0.85" d="M2038.83 765C1975.87 762.111 1325.08 753.775 1299.04 725.848C1285.4 711.238 1279.64 565.118 1257.46 565.118C1235.27 565.118 1229.73 651.036 1218.64 675.968C1207.55 700.916 1169.92 706.227 1160.43 764.654C1152.83 811.404 1157.66 989.137 1138.26 983.585C1118.86 978.048 1121.63 714.774 1118.86 725.848C1116.09 736.938 1107.77 750.796 1091.14 756.333C1074.51 761.87 1062.75 747.38 1032.92 736.938C1012.41 729.76 1010.89 739.857 985.952 753.715C960.999 767.573 941.449 764.654 922.05 767.423C902.65 770.191 902.65 542.939 902.65 542.939C902.65 542.939 890.7 758.379 869.389 761.87C855.709 764.112 843.187 734.154 829.326 734.154C819.754 734.154 802.236 744.732 792.333 751.277C787.336 754.573 781.482 756.318 775.492 756.318H442.524C442.524 756.318 381.33 749.171 362.141 775.713C343.63 801.323 337.188 928.137 323.327 950.301C309.466 972.465 287.297 883.794 281.744 850.541C276.205 817.288 259.861 801.85 251.553 785.223C243.231 768.596 242.945 725.833 234.622 700.886C226.299 675.938 248.618 264.799 212.453 279.651C194.002 287.219 187.5 664.864 184.731 692.58C181.962 720.296 158.333 746.101 126.517 741.106C98.2982 736.682 89.3134 698.328 75.4522 695.544C65.4891 693.558 46.1045 717.964 35.9909 731.837C31.7618 737.63 25.0495 741.091 17.8706 741.091H-20.4018C-26.6175 741.091 -31.7496 736.231 -32.0957 730.031L-42.5705 542.909C-42.5705 542.909 -64.7394 731.355 -75.8313 739.676C-86.9232 747.997 -111.861 717.512 -122.953 706.423C-130.177 699.2 -140.938 710.801 -147.56 719.769C-151.669 725.337 -158.185 728.602 -165.123 728.602H-1252.9" stroke="url(#paint17_linear_1626_3042)" stroke-width="7.48926" stroke-miterlimit="10"></path><path opacity="0.89" d="M2036.06 769.447C1971.46 766.723 1319.1 758.492 1292.52 729.979C1278.89 715.368 1273.12 569.249 1250.94 569.249C1228.76 569.249 1223.22 655.166 1212.13 680.099C1201.03 705.046 1163.41 710.358 1153.91 768.784C1146.31 815.535 1151.14 993.268 1131.74 987.715C1112.34 982.178 1115.11 718.904 1112.34 729.979C1109.57 741.068 1101.25 754.926 1084.62 760.464C1067.99 766.001 1056.24 751.511 1026.41 741.068C1005.89 733.891 1004.37 743.987 979.436 757.845C954.483 771.704 934.933 768.784 915.534 771.553C896.134 774.322 896.134 547.07 896.134 547.07C896.134 547.07 884.185 762.51 862.874 766.001C849.193 768.243 836.671 738.285 822.81 738.285C813.238 738.285 795.72 748.863 785.817 755.408C780.82 758.703 774.966 760.449 768.976 760.449H436.008C436.008 760.449 374.814 753.301 355.626 779.844C337.114 805.454 330.672 932.268 316.811 954.432C302.95 976.596 280.781 887.925 275.228 854.672C269.689 821.418 253.345 805.98 245.038 789.353C236.715 772.727 236.429 729.964 228.106 705.016C219.784 680.069 242.75 268.975 205.937 283.781C187.426 291.229 180.984 668.994 178.215 696.71C175.446 724.426 151.817 750.232 120.001 745.236C91.7825 740.812 82.7976 702.458 68.9365 699.675C58.9733 697.688 39.5889 722.094 29.4752 735.967C25.2461 741.76 18.5337 745.221 11.3549 745.221H-26.9175C-33.1332 745.221 -38.2653 740.361 -38.6114 734.162L-49.0862 547.04C-49.0862 547.04 -71.2551 735.486 -82.347 743.807C-93.4389 752.128 -118.377 721.643 -129.469 710.553C-136.693 703.331 -147.454 714.932 -154.076 723.9C-158.184 729.467 -164.701 732.732 -171.639 732.732H-1259.41" stroke="url(#paint18_linear_1626_3042)" stroke-width="7.84542" stroke-miterlimit="10"></path><path opacity="0.92" d="M2033.29 773.91C1967.04 771.352 1313.13 763.227 1286.01 734.141C1272.37 719.531 1266.61 573.411 1244.42 573.411C1222.24 573.411 1216.7 659.329 1205.61 684.261C1194.52 709.209 1156.89 714.52 1147.4 772.947C1139.8 819.697 1144.63 997.43 1125.23 991.878C1105.83 986.341 1108.6 723.067 1105.83 734.141C1103.06 745.231 1094.74 759.089 1078.11 764.626C1061.48 770.163 1049.72 755.673 1019.89 745.231C999.378 738.053 997.858 748.15 972.92 762.008C947.967 775.866 928.417 772.947 909.018 775.716C889.618 778.484 889.618 551.232 889.618 551.232C889.618 551.232 877.668 766.672 856.357 770.163C842.677 772.405 830.155 742.447 816.294 742.447C806.722 742.447 789.204 753.025 779.301 759.57C774.304 762.866 768.45 764.611 762.46 764.611H429.492C429.492 764.611 368.298 757.464 349.109 784.006C330.598 809.616 324.156 936.43 310.295 958.594C296.434 980.758 274.265 892.087 268.712 858.834C263.174 825.581 246.829 810.143 238.521 793.516C230.199 776.889 229.913 734.126 221.59 709.179C213.267 684.231 236.881 273.168 199.421 287.944C180.85 295.271 174.468 673.157 171.699 700.873C168.93 728.589 145.301 754.394 113.485 749.399C85.2664 744.975 76.2815 706.621 62.4204 703.837C52.4573 701.851 33.0728 726.257 22.9591 740.13C18.7301 745.923 12.0178 749.384 4.83887 749.384H-33.4336C-39.6493 749.384 -44.7813 744.524 -45.1274 738.324L-55.6023 551.202C-55.6023 551.202 -77.7711 739.648 -88.863 747.969C-99.9549 756.29 -124.893 725.805 -135.985 714.716C-143.209 707.493 -153.97 719.094 -160.592 728.062C-164.7 733.63 -171.217 736.895 -178.155 736.895H-1265.95" stroke="url(#paint19_linear_1626_3042)" stroke-width="8.20158" stroke-miterlimit="10"></path><path opacity="0.96" d="M2030.54 778.346C1962.65 775.954 1307.17 767.934 1279.49 738.262C1265.86 723.651 1260.09 577.532 1237.91 577.532C1215.72 577.532 1210.19 663.449 1199.09 688.382C1188 713.329 1150.38 718.641 1140.88 777.067C1133.28 823.818 1138.11 1001.55 1118.71 995.998C1099.31 990.461 1102.08 727.187 1099.31 738.262C1096.54 749.351 1088.22 763.209 1071.59 768.747C1054.96 774.284 1043.21 759.794 1013.38 749.351C992.863 742.174 991.343 752.27 966.405 766.128C941.452 779.986 921.902 777.067 902.502 779.836C883.103 782.605 883.103 555.353 883.103 555.353C883.103 555.353 871.153 770.793 849.842 774.284C836.162 776.526 823.64 746.568 809.779 746.568C800.207 746.568 782.689 757.145 772.786 763.691C767.789 766.986 761.935 768.731 755.945 768.731H422.977C422.977 768.731 361.783 761.584 342.594 788.127C324.083 813.736 317.641 940.551 303.78 962.715C289.919 984.879 267.75 896.208 262.197 862.955C256.658 829.701 240.314 814.263 232.006 797.636C223.683 781.01 223.398 738.247 215.075 713.299C206.752 688.351 231.028 277.378 192.906 292.064C174.274 299.286 167.953 677.277 165.184 704.993C162.415 732.709 138.786 758.515 106.97 753.519C78.7512 749.095 69.7663 710.741 55.9051 707.957C45.942 705.971 26.5574 730.377 16.4438 744.25C12.2147 750.043 5.5024 753.504 -1.67649 753.504H-39.9488C-46.1645 753.504 -51.2966 748.644 -51.6428 742.445L-62.1176 555.323C-62.1176 555.323 -84.2864 743.769 -95.3783 752.09C-106.47 760.411 -131.408 729.926 -142.5 718.836C-149.724 711.614 -160.485 723.215 -167.107 732.183C-171.216 737.75 -177.732 741.015 -184.67 741.015H-1272.45" stroke="url(#paint20_linear_1626_3042)" stroke-width="8.54785" stroke-miterlimit="10"></path><path d="M2027.75 782.78C1958.22 780.553 1301.18 772.623 1272.96 742.379C1259.33 727.768 1253.56 581.649 1231.38 581.649C1209.19 581.649 1203.66 667.566 1192.56 692.499C1181.47 717.446 1143.85 722.758 1134.35 781.185C1126.75 827.935 1131.58 1005.67 1112.18 1000.12C1092.78 994.578 1095.55 731.304 1092.78 742.379C1090.01 753.468 1081.69 767.326 1065.06 772.864C1048.43 778.401 1036.67 763.911 1006.85 753.468C986.332 746.291 984.812 756.387 959.874 770.246C934.921 784.104 915.371 781.185 895.971 783.953C876.572 786.722 876.572 559.47 876.572 559.47C876.572 559.47 864.622 774.91 843.311 778.401C829.631 780.643 817.109 750.685 803.248 750.685C793.676 750.685 776.158 761.263 766.255 767.808C761.258 771.103 755.404 772.849 749.414 772.849H416.446C416.446 772.849 355.252 765.701 336.063 792.244C317.551 817.854 311.11 944.668 297.249 966.832C283.388 988.996 261.219 900.325 255.666 867.072C250.127 833.818 233.783 818.38 225.475 801.754C217.152 785.127 216.866 742.364 208.544 717.416C200.221 692.469 225.129 281.495 186.375 296.181C167.683 303.253 161.422 681.394 158.653 709.11C155.883 736.827 132.255 762.632 100.439 757.636C72.22 753.213 63.2351 714.858 49.374 712.075C39.4108 710.088 20.0264 734.494 9.91272 748.368C5.68364 754.161 -1.02875 757.621 -8.20764 757.621H-46.48C-52.6957 757.621 -57.8278 752.761 -58.1739 746.562L-68.6487 559.44C-68.6487 559.44 -90.8176 747.886 -101.909 756.207C-113.001 764.528 -137.939 734.043 -149.031 722.954C-156.255 715.731 -167.016 727.332 -173.638 736.3C-177.747 741.867 -184.263 745.132 -191.202 745.132H-1278.98" stroke="url(#paint21_linear_1626_3042)" stroke-width="8.90401" stroke-miterlimit="10"></path></g></g><defs><linearGradient id="paint0_linear_1626_3042" x1="-1142.05" y1="561.361" x2="2086.07" y2="561.361" gradientUnits="userSpaceOnUse"><stop offset="0.2" stop-color="#1232C4"></stop><stop offset="0.41" stop-color="#1636C5"></stop><stop offset="0.48" stop-color="#1A39C5"></stop><stop offset="0.56" stop-color="#2645C8"></stop><stop offset="0.65" stop-color="#3B59CC"></stop><stop offset="0.73" stop-color="#5975D2"></stop><stop offset="0.81" stop-color="#7F98DA"></stop><stop offset="0.88" stop-color="#A2B9E1"></stop><stop offset="1" stop-color="#E8F9F1"></stop></linearGradient><linearGradient id="paint1_linear_1626_3042" x1="-1148.56" y1="565.478" x2="2083.32" y2="565.478" gradientUnits="userSpaceOnUse"><stop offset="0.2" stop-color="#1232C4"></stop><stop offset="0.41" stop-color="#1838C5"></stop><stop offset="0.48" stop-color="#1C3BC5"></stop><stop offset="0.56" stop-color="#2847C8"></stop><stop offset="0.64" stop-color="#3D5BCC"></stop><stop offset="0.72" stop-color="#5B77D2"></stop><stop offset="0.8" stop-color="#7B95D9"></stop><stop offset="0.88" stop-color="#A6BCE2"></stop><stop offset="1" stop-color="#E9F9F1"></stop></linearGradient><linearGradient id="paint2_linear_1626_3042" x1="-1155.1" y1="569.615" x2="2080.58" y2="569.615" gradientUnits="userSpaceOnUse"><stop offset="0.2" stop-color="#1232C4"></stop><stop offset="0.41" stop-color="#1A3AC6"></stop><stop offset="0.48" stop-color="#1E3DC6"></stop><stop offset="0.56" stop-color="#2A49C9"></stop><stop offset="0.64" stop-color="#3F5DCD"></stop><stop offset="0.72" stop-color="#5D78D3"></stop><stop offset="0.8" stop-color="#819ADA"></stop><stop offset="0.88" stop-color="#A9BFE3"></stop><stop offset="1" stop-color="#EBF9F2"></stop></linearGradient><linearGradient id="paint3_linear_1626_3042" x1="-1161.61" y1="573.726" x2="2077.83" y2="573.726" gradientUnits="userSpaceOnUse"><stop offset="0.2" stop-color="#1232C4"></stop><stop offset="0.38" stop-color="#1A3AC5"></stop><stop offset="0.41" stop-color="#1C3CC6"></stop><stop offset="0.48" stop-color="#203FC6"></stop><stop offset="0.56" stop-color="#2C4BC9"></stop><stop offset="0.63" stop-color="#415FCD"></stop><stop offset="0.71" stop-color="#5F7BD3"></stop><stop offset="0.79" stop-color="#859EDA"></stop><stop offset="0.8" stop-color="#869FDB"></stop><stop offset="0.88" stop-color="#ADC2E4"></stop><stop offset="1" stop-color="#ECFAF3"></stop></linearGradient><linearGradient id="paint4_linear_1626_3042" x1="-1168.13" y1="577.867" x2="2075.07" y2="577.867" gradientUnits="userSpaceOnUse"><stop offset="0.2" stop-color="#1232C4"></stop><stop offset="0.36" stop-color="#1A3AC6"></stop><stop offset="0.41" stop-color="#1E3EC7"></stop><stop offset="0.48" stop-color="#2241C7"></stop><stop offset="0.55" stop-color="#2E4DCA"></stop><stop offset="0.63" stop-color="#4361CE"></stop><stop offset="0.71" stop-color="#617DD4"></stop><stop offset="0.79" stop-color="#87A0DB"></stop><stop offset="0.8" stop-color="#8BA4DC"></stop><stop offset="0.88" stop-color="#B1C6E5"></stop><stop offset="1" stop-color="#EDFAF3"></stop></linearGradient><linearGradient id="paint5_linear_1626_3042" x1="-1174.65" y1="581.985" x2="2072.32" y2="581.985" gradientUnits="userSpaceOnUse"><stop offset="0.2" stop-color="#1232C4"></stop><stop offset="0.34" stop-color="#1A3AC5"></stop><stop offset="0.41" stop-color="#2040C7"></stop><stop offset="0.48" stop-color="#2443C7"></stop><stop offset="0.55" stop-color="#304FCA"></stop><stop offset="0.63" stop-color="#4563CE"></stop><stop offset="0.7" stop-color="#637ED4"></stop><stop offset="0.78" stop-color="#89A1DB"></stop><stop offset="0.8" stop-color="#91A9DD"></stop><stop offset="0.88" stop-color="#B5C9E6"></stop><stop offset="1" stop-color="#EEFAF4"></stop></linearGradient><linearGradient id="paint6_linear_1626_3042" x1="-1181.19" y1="586.111" x2="2069.56" y2="586.111" gradientUnits="userSpaceOnUse"><stop offset="0.2" stop-color="#1232C4"></stop><stop offset="0.32" stop-color="#1A39C5"></stop><stop offset="0.41" stop-color="#2342C8"></stop><stop offset="0.48" stop-color="#2745C8"></stop><stop offset="0.55" stop-color="#3351CB"></stop><stop offset="0.63" stop-color="#4865CF"></stop><stop offset="0.7" stop-color="#6681D5"></stop><stop offset="0.78" stop-color="#8CA4DD"></stop><stop offset="0.8" stop-color="#96AEDF"></stop><stop offset="0.88" stop-color="#B8CCE7"></stop><stop offset="1" stop-color="#EFFAF5"></stop></linearGradient><linearGradient id="paint7_linear_1626_3042" x1="-1187.7" y1="590.229" x2="2066.79" y2="590.229" gradientUnits="userSpaceOnUse"><stop offset="0.2" stop-color="#1232C4"></stop><stop offset="0.31" stop-color="#1A39C5"></stop><stop offset="0.41" stop-color="#2544C8"></stop><stop offset="0.48" stop-color="#2948C8"></stop><stop offset="0.55" stop-color="#3553CB"></stop><stop offset="0.62" stop-color="#4A67CF"></stop><stop offset="0.7" stop-color="#6883D5"></stop><stop offset="0.77" stop-color="#8EA6DD"></stop><stop offset="0.8" stop-color="#9BB3E0"></stop><stop offset="0.88" stop-color="#BCCFE8"></stop><stop offset="1" stop-color="#F0FBF5"></stop></linearGradient><linearGradient id="paint8_linear_1626_3042" x1="-1194.22" y1="594.34" x2="2064.03" y2="594.34" gradientUnits="userSpaceOnUse"><stop offset="0.2" stop-color="#1232C4"></stop><stop offset="0.31" stop-color="#1A39C5"></stop><stop offset="0.41" stop-color="#2746C8"></stop><stop offset="0.48" stop-color="#2B49C8"></stop><stop offset="0.55" stop-color="#3755CB"></stop><stop offset="0.62" stop-color="#4C69CF"></stop><stop offset="0.69" stop-color="#6A85D5"></stop><stop offset="0.77" stop-color="#90A8DD"></stop><stop offset="0.8" stop-color="#A1B8E1"></stop><stop offset="0.88" stop-color="#C0D2E9"></stop><stop offset="1" stop-color="#F1FBF6"></stop></linearGradient><linearGradient id="paint9_linear_1626_3042" x1="-1200.73" y1="598.495" x2="2061.27" y2="598.495" gradientUnits="userSpaceOnUse"><stop offset="0.2" stop-color="#1232C4"></stop><stop offset="0.3" stop-color="#1A39C5"></stop><stop offset="0.41" stop-color="#2948C9"></stop><stop offset="0.47" stop-color="#2D4BC9"></stop><stop offset="0.54" stop-color="#3957CC"></stop><stop offset="0.62" stop-color="#4E6BD0"></stop><stop offset="0.69" stop-color="#6C87D6"></stop><stop offset="0.76" stop-color="#92AADE"></stop><stop offset="0.8" stop-color="#A6BDE2"></stop><stop offset="0.88" stop-color="#C3D5EA"></stop><stop offset="1" stop-color="#F2FBF7"></stop></linearGradient><linearGradient id="paint10_linear_1626_3042" x1="-1207.26" y1="602.612" x2="2058.49" y2="602.612" gradientUnits="userSpaceOnUse"><stop offset="0.2" stop-color="#1232C4"></stop><stop offset="0.29" stop-color="#1A39C5"></stop><stop offset="0.41" stop-color="#2B4AC9"></stop><stop offset="0.47" stop-color="#2F4DC9"></stop><stop offset="0.54" stop-color="#3B59CC"></stop><stop offset="0.61" stop-color="#506DD0"></stop><stop offset="0.69" stop-color="#6E89D6"></stop><stop offset="0.76" stop-color="#94ACDE"></stop><stop offset="0.8" stop-color="#ABC2E3"></stop><stop offset="0.88" stop-color="#C7D8EB"></stop><stop offset="1" stop-color="#F3FCF7"></stop></linearGradient><linearGradient id="paint11_linear_1626_3042" x1="-1213.77" y1="606.73" x2="2055.74" y2="606.73" gradientUnits="userSpaceOnUse"><stop offset="0.2" stop-color="#1232C4"></stop><stop offset="0.29" stop-color="#1A39C5"></stop><stop offset="0.41" stop-color="#2D4BCA"></stop><stop offset="0.47" stop-color="#314ECA"></stop><stop offset="0.54" stop-color="#3D5ACD"></stop><stop offset="0.61" stop-color="#526ED1"></stop><stop offset="0.68" stop-color="#7089D7"></stop><stop offset="0.75" stop-color="#96ACDE"></stop><stop offset="0.8" stop-color="#B1C6E4"></stop><stop offset="0.88" stop-color="#CBDCEC"></stop><stop offset="1" stop-color="#F4FCF8"></stop></linearGradient><linearGradient id="paint12_linear_1626_3042" x1="-1220.3" y1="610.87" x2="2052.95" y2="610.87" gradientUnits="userSpaceOnUse"><stop offset="0.2" stop-color="#1232C4"></stop><stop offset="0.29" stop-color="#1A39C5"></stop><stop offset="0.41" stop-color="#2F4DCA"></stop><stop offset="0.47" stop-color="#3350CA"></stop><stop offset="0.54" stop-color="#3F5CCD"></stop><stop offset="0.61" stop-color="#5570D1"></stop><stop offset="0.68" stop-color="#728CD7"></stop><stop offset="0.75" stop-color="#98AFDF"></stop><stop offset="0.8" stop-color="#B6CBE5"></stop><stop offset="0.88" stop-color="#CFDFED"></stop><stop offset="1" stop-color="#F5FCF9"></stop></linearGradient><linearGradient id="paint13_linear_1626_3042" x1="-1226.8" y1="615.002" x2="2050.2" y2="615.002" gradientUnits="userSpaceOnUse"><stop offset="0.2" stop-color="#1232C4"></stop><stop offset="0.28" stop-color="#1A39C5"></stop><stop offset="0.41" stop-color="#314FCB"></stop><stop offset="0.47" stop-color="#3552CB"></stop><stop offset="0.54" stop-color="#415ECE"></stop><stop offset="0.61" stop-color="#5772D2"></stop><stop offset="0.67" stop-color="#748ED8"></stop><stop offset="0.74" stop-color="#9AB1DF"></stop><stop offset="0.8" stop-color="#BBD0E6"></stop><stop offset="0.88" stop-color="#D2E2EE"></stop><stop offset="1" stop-color="#F6FDF9"></stop></linearGradient><linearGradient id="paint14_linear_1626_3042" x1="-1233.33" y1="619.118" x2="2047.41" y2="619.118" gradientUnits="userSpaceOnUse"><stop offset="0.2" stop-color="#1232C4"></stop><stop offset="0.28" stop-color="#1A39C5"></stop><stop offset="0.4" stop-color="#304ECA"></stop><stop offset="0.41" stop-color="#3351CB"></stop><stop offset="0.47" stop-color="#3754CB"></stop><stop offset="0.54" stop-color="#4360CE"></stop><stop offset="0.6" stop-color="#5874D2"></stop><stop offset="0.67" stop-color="#768FD8"></stop><stop offset="0.74" stop-color="#9CB2DF"></stop><stop offset="0.8" stop-color="#C1D5E7"></stop><stop offset="0.88" stop-color="#D6E5EF"></stop><stop offset="1" stop-color="#F7FDFA"></stop></linearGradient><linearGradient id="paint15_linear_1626_3042" x1="-1239.86" y1="623.25" x2="2044.64" y2="623.25" gradientUnits="userSpaceOnUse"><stop offset="0.2" stop-color="#1232C4"></stop><stop offset="0.27" stop-color="#1A39C5"></stop><stop offset="0.39" stop-color="#304ECA"></stop><stop offset="0.41" stop-color="#3553CB"></stop><stop offset="0.47" stop-color="#3956CB"></stop><stop offset="0.53" stop-color="#4562CE"></stop><stop offset="0.6" stop-color="#5A76D2"></stop><stop offset="0.67" stop-color="#7891D8"></stop><stop offset="0.74" stop-color="#9EB4E0"></stop><stop offset="0.8" stop-color="#C6DAE8"></stop><stop offset="0.88" stop-color="#DAE8F0"></stop><stop offset="1" stop-color="#F9FDFB"></stop></linearGradient><linearGradient id="paint16_linear_1626_3042" x1="-1246.38" y1="627.381" x2="2041.87" y2="627.381" gradientUnits="userSpaceOnUse"><stop offset="0.2" stop-color="#1232C4"></stop><stop offset="0.27" stop-color="#1A39C5"></stop><stop offset="0.38" stop-color="#304DCA"></stop><stop offset="0.41" stop-color="#3855CC"></stop><stop offset="0.47" stop-color="#3C58CC"></stop><stop offset="0.53" stop-color="#4864CF"></stop><stop offset="0.6" stop-color="#5D78D3"></stop><stop offset="0.67" stop-color="#7B94D9"></stop><stop offset="0.73" stop-color="#A1B7E1"></stop><stop offset="0.8" stop-color="#CBDFEA"></stop><stop offset="0.88" stop-color="#DDEBF1"></stop><stop offset="1" stop-color="#FAFDFC"></stop></linearGradient><linearGradient id="paint17_linear_1626_3042" x1="-1252.9" y1="631.505" x2="2039.08" y2="631.505" gradientUnits="userSpaceOnUse"><stop offset="0.2" stop-color="#1232C4"></stop><stop offset="0.27" stop-color="#1A39C5"></stop><stop offset="0.37" stop-color="#304ECA"></stop><stop offset="0.41" stop-color="#3A57CC"></stop><stop offset="0.47" stop-color="#3E5ACC"></stop><stop offset="0.53" stop-color="#4A66CF"></stop><stop offset="0.6" stop-color="#5F7AD3"></stop><stop offset="0.66" stop-color="#7D96D9"></stop><stop offset="0.73" stop-color="#A3B9E1"></stop><stop offset="0.8" stop-color="#D1E4EB"></stop><stop offset="0.88" stop-color="#E1EEF2"></stop><stop offset="1" stop-color="#FBFEFC"></stop></linearGradient><linearGradient id="paint18_linear_1626_3042" x1="-1259.41" y1="635.62" x2="2036.3" y2="635.62" gradientUnits="userSpaceOnUse"><stop offset="0.2" stop-color="#1232C4"></stop><stop offset="0.27" stop-color="#1A39C5"></stop><stop offset="0.37" stop-color="#304ECA"></stop><stop offset="0.41" stop-color="#3C59CD"></stop><stop offset="0.47" stop-color="#405CCD"></stop><stop offset="0.53" stop-color="#4C68D0"></stop><stop offset="0.59" stop-color="#627CD4"></stop><stop offset="0.66" stop-color="#7F98DA"></stop><stop offset="0.73" stop-color="#A5BBE2"></stop><stop offset="0.79" stop-color="#D3E6EB"></stop><stop offset="0.8" stop-color="#D6E9EC"></stop><stop offset="0.88" stop-color="#E5F2F3"></stop><stop offset="1" stop-color="#FCFEFD"></stop></linearGradient><linearGradient id="paint19_linear_1626_3042" x1="-1265.95" y1="639.783" x2="2033.53" y2="639.783" gradientUnits="userSpaceOnUse"><stop offset="0.2" stop-color="#1232C4"></stop><stop offset="0.26" stop-color="#1A39C5"></stop><stop offset="0.36" stop-color="#304ECA"></stop><stop offset="0.41" stop-color="#3E5BCD"></stop><stop offset="0.47" stop-color="#425ECD"></stop><stop offset="0.53" stop-color="#4E6AD0"></stop><stop offset="0.59" stop-color="#647ED4"></stop><stop offset="0.66" stop-color="#819ADA"></stop><stop offset="0.72" stop-color="#A7BDE2"></stop><stop offset="0.79" stop-color="#D5E8EB"></stop><stop offset="0.8" stop-color="#DBEEED"></stop><stop offset="0.88" stop-color="#E9F5F4"></stop><stop offset="1" stop-color="#FDFEFE"></stop></linearGradient><linearGradient id="paint20_linear_1626_3042" x1="-1272.45" y1="643.903" x2="2030.76" y2="643.903" gradientUnits="userSpaceOnUse"><stop offset="0.2" stop-color="#1232C4"></stop><stop offset="0.26" stop-color="#1A39C5"></stop><stop offset="0.36" stop-color="#304ECA"></stop><stop offset="0.41" stop-color="#405DCE"></stop><stop offset="0.47" stop-color="#4460CE"></stop><stop offset="0.53" stop-color="#506CD1"></stop><stop offset="0.59" stop-color="#6680D5"></stop><stop offset="0.65" stop-color="#839BDB"></stop><stop offset="0.72" stop-color="#A9BFE2"></stop><stop offset="0.78" stop-color="#D7EAEC"></stop><stop offset="0.8" stop-color="#E1F3EE"></stop><stop offset="0.88" stop-color="#ECF8F5"></stop><stop offset="1" stop-color="#FEFFFE"></stop></linearGradient><linearGradient id="paint21_linear_1626_3042" x1="-1278.98" y1="648.02" x2="2027.96" y2="648.02" gradientUnits="userSpaceOnUse"><stop offset="0.2" stop-color="#1232C4"></stop><stop offset="0.26" stop-color="#1A39C5"></stop><stop offset="0.35" stop-color="#304ECA"></stop><stop offset="0.46" stop-color="#5570D1"></stop><stop offset="0.59" stop-color="#87A0DB"></stop><stop offset="0.73" stop-color="#C7DBE8"></stop><stop offset="0.8" stop-color="#E6F8EF"></stop><stop offset="1" stop-color="white"></stop></linearGradient><clipPath id="clip0_1626_3042"><rect width="1438" height="1202" fill="white"></rect></clipPath><clipPath id="clip1_1626_3042"><rect width="3365.05" height="799" fill="white" transform="translate(-1278.98 208)"></rect></clipPath></defs></svg>